<svg width="63" height="63" viewBox="0 0 63 63" fill="none" xmlns="http://www.w3.org/2000/svg">
<path d="M28.7162 31.5L23.1486 37.0676C22.79 37.4389 22.5915 37.9362 22.596 38.4524C22.6005 38.9686 22.8076 39.4624 23.1726 39.8274C23.5376 40.1925 24.0314 40.3995 24.5476 40.404C25.0638 40.4085 25.5611 40.21 25.9324 39.8514L31.5 34.2838L37.0677 39.8514C37.2493 40.0395 37.4665 40.1894 37.7067 40.2926C37.9469 40.3958 38.2052 40.4501 38.4667 40.4524C38.7281 40.4547 38.9873 40.4048 39.2293 40.3058C39.4712 40.2069 39.691 40.0607 39.8759 39.8758C40.0607 39.691 40.2069 39.4712 40.3059 39.2292C40.4049 38.9872 40.4547 38.728 40.4524 38.4666C40.4502 38.2052 40.3959 37.9468 40.2927 37.7067C40.1895 37.4665 40.0395 37.2492 39.8515 37.0676L34.2838 31.5L39.8515 25.9324C40.0395 25.7507 40.1895 25.5335 40.2927 25.2933C40.3959 25.0531 40.4502 24.7948 40.4524 24.5334C40.4547 24.272 40.4049 24.0127 40.3059 23.7708C40.2069 23.5288 40.0607 23.309 39.8759 23.1241C39.691 22.9393 39.4712 22.7931 39.2293 22.6941C38.9873 22.5951 38.7281 22.5453 38.4667 22.5476C38.2052 22.5498 37.9469 22.6042 37.7067 22.7073C37.4665 22.8105 37.2493 22.9605 37.0677 23.1485L31.5 28.7162L25.9324 23.1485C25.5611 22.7899 25.0638 22.5915 24.5476 22.596C24.0314 22.6004 23.5376 22.8075 23.1726 23.1725C22.8076 23.5375 22.6005 24.0313 22.596 24.5475C22.5915 25.0637 22.79 25.561 23.1486 25.9324L28.7162 31.5Z" fill="white"/>
<path d="M31.5 7.875C34.6025 7.875 37.6746 8.48608 40.5409 9.67335C43.4072 10.8606 46.0116 12.6008 48.2054 14.7946C50.3992 16.9884 52.1394 19.5928 53.3267 22.4591C54.5139 25.3254 55.125 28.3975 55.125 31.5C55.125 34.6025 54.5139 37.6746 53.3267 40.5409C52.1394 43.4072 50.3992 46.0116 48.2054 48.2054C46.0116 50.3992 43.4072 52.1394 40.5409 53.3267C37.6746 54.5139 34.6025 55.125 31.5 55.125C25.2343 55.125 19.2251 52.6359 14.7946 48.2054C10.3641 43.7749 7.875 37.7657 7.875 31.5C7.875 25.2343 10.3641 19.2251 14.7946 14.7946C19.2251 10.3641 25.2343 7.875 31.5 7.875ZM31.5 3.9375C24.19 3.9375 17.1793 6.8414 12.0104 12.0104C6.8414 17.1793 3.9375 24.19 3.9375 31.5C3.9375 38.81 6.8414 45.8207 12.0104 50.9896C17.1793 56.1586 24.19 59.0625 31.5 59.0625C38.81 59.0625 45.8207 56.1586 50.9896 50.9896C56.1586 45.8207 59.0625 38.81 59.0625 31.5C59.0625 24.19 56.1586 17.1793 50.9896 12.0104C45.8207 6.8414 38.81 3.9375 31.5 3.9375Z" fill="white"/>
</svg>
