<svg width="35" height="28" viewBox="0 0 35 28" fill="none" xmlns="http://www.w3.org/2000/svg">
<path d="M1 4.71429C1 3.7292 1.38631 2.78445 2.07394 2.08789C2.76158 1.39133 3.69421 1 4.66667 1H30.3333C31.3058 1 32.2384 1.39133 32.9261 2.08789C33.6137 2.78445 34 3.7292 34 4.71429V23.2857C34 24.2708 33.6137 25.2155 32.9261 25.9121C32.2384 26.6087 31.3058 27 30.3333 27H4.66667C3.69421 27 2.76158 26.6087 2.07394 25.9121C1.38631 25.2155 1 24.2708 1 23.2857V4.71429Z" stroke="white" stroke-width="2" stroke-linecap="round" stroke-linejoin="round"/>
<path d="M1 4.71423L17.5 15.8571L34 4.71423" stroke="white" stroke-width="2" stroke-linecap="round" stroke-linejoin="round"/>
</svg>
