<svg width="150" height="53" viewBox="0 0 150 53" fill="none" xmlns="http://www.w3.org/2000/svg">
<path d="M60 0L75 20L90 0H60Z" fill="white"/>
<path d="M0.568182 39.392V37.3636H10.125V39.392H6.5625V49H4.13068V39.392H0.568182ZM21.8608 43.1818C21.8608 44.4508 21.6203 45.5303 21.1392 46.4205C20.6619 47.3106 20.0104 47.9905 19.1847 48.4602C18.3627 48.9261 17.4384 49.1591 16.4119 49.1591C15.3778 49.1591 14.4498 48.9242 13.6278 48.4545C12.8059 47.9848 12.1563 47.3049 11.679 46.4148C11.2017 45.5246 10.9631 44.447 10.9631 43.1818C10.9631 41.9129 11.2017 40.8333 11.679 39.9432C12.1563 39.053 12.8059 38.375 13.6278 37.9091C14.4498 37.4394 15.3778 37.2045 16.4119 37.2045C17.4384 37.2045 18.3627 37.4394 19.1847 37.9091C20.0104 38.375 20.6619 39.053 21.1392 39.9432C21.6203 40.8333 21.8608 41.9129 21.8608 43.1818ZM19.3665 43.1818C19.3665 42.3598 19.2434 41.6667 18.9972 41.1023C18.7547 40.5379 18.4119 40.1098 17.9688 39.8182C17.5256 39.5265 17.0066 39.3807 16.4119 39.3807C15.8172 39.3807 15.2983 39.5265 14.8551 39.8182C14.4119 40.1098 14.0672 40.5379 13.821 41.1023C13.5786 41.6667 13.4574 42.3598 13.4574 43.1818C13.4574 44.0038 13.5786 44.697 13.821 45.2614C14.0672 45.8258 14.4119 46.2538 14.8551 46.5455C15.2983 46.8371 15.8172 46.983 16.4119 46.983C17.0066 46.983 17.5256 46.8371 17.9688 46.5455C18.4119 46.2538 18.7547 45.8258 18.9972 45.2614C19.2434 44.697 19.3665 44.0038 19.3665 43.1818ZM25.1293 37.3636L27.9418 46.2045H28.0497L30.8679 37.3636H33.5952L29.5838 49H26.4134L22.3963 37.3636H25.1293ZM35.4545 49H32.8182L36.8352 37.3636H40.0057L44.017 49H41.3807L38.4659 40.0227H38.375L35.4545 49ZM35.2898 44.4261H41.517V46.3466H35.2898V44.4261ZM37.5511 36.2386L38.7557 33.6534H40.9943L39.2614 36.2386H37.5511ZM45.4176 49V37.3636H50.0767C50.9328 37.3636 51.6468 37.4905 52.2188 37.7443C52.7907 37.9981 53.2206 38.3504 53.5085 38.8011C53.7964 39.2481 53.9403 39.7633 53.9403 40.3466C53.9403 40.8011 53.8494 41.2008 53.6676 41.5455C53.4858 41.8864 53.2358 42.1667 52.9176 42.3864C52.6032 42.6023 52.2434 42.7557 51.8381 42.8466V42.9602C52.2813 42.9792 52.696 43.1042 53.0824 43.3352C53.4725 43.5663 53.7888 43.8902 54.0312 44.3068C54.2737 44.7197 54.3949 45.2121 54.3949 45.7841C54.3949 46.4015 54.2415 46.9527 53.9347 47.4375C53.6316 47.9186 53.1828 48.2992 52.5881 48.5795C51.9934 48.8598 51.2604 49 50.3892 49H45.4176ZM47.8778 46.9886H49.8835C50.5691 46.9886 51.0691 46.858 51.3835 46.5966C51.6979 46.3314 51.8551 45.9792 51.8551 45.5398C51.8551 45.2178 51.7775 44.9337 51.6222 44.6875C51.4669 44.4413 51.2453 44.2481 50.9574 44.108C50.6733 43.9678 50.3343 43.8977 49.9403 43.8977H47.8778V46.9886ZM47.8778 42.233H49.7017C50.0388 42.233 50.3381 42.1742 50.5994 42.0568C50.8646 41.9356 51.0729 41.7652 51.2244 41.5455C51.3797 41.3258 51.4574 41.0625 51.4574 40.7557C51.4574 40.3352 51.3078 39.9962 51.0085 39.7386C50.7131 39.4811 50.2926 39.3523 49.7472 39.3523H47.8778V42.233ZM55.9957 49V37.3636H60.6548C61.5109 37.3636 62.2249 37.4905 62.7969 37.7443C63.3688 37.9981 63.7988 38.3504 64.0866 38.8011C64.3745 39.2481 64.5185 39.7633 64.5185 40.3466C64.5185 40.8011 64.4276 41.2008 64.2457 41.5455C64.0639 41.8864 63.8139 42.1667 63.4957 42.3864C63.1813 42.6023 62.8215 42.7557 62.4162 42.8466V42.9602C62.8594 42.9792 63.2741 43.1042 63.6605 43.3352C64.0507 43.5663 64.367 43.8902 64.6094 44.3068C64.8518 44.7197 64.973 45.2121 64.973 45.7841C64.973 46.4015 64.8196 46.9527 64.5128 47.4375C64.2098 47.9186 63.7609 48.2992 63.1662 48.5795C62.5715 48.8598 61.8385 49 60.9673 49H55.9957ZM58.456 46.9886H60.4616C61.1473 46.9886 61.6473 46.858 61.9616 46.5966C62.276 46.3314 62.4332 45.9792 62.4332 45.5398C62.4332 45.2178 62.3556 44.9337 62.2003 44.6875C62.045 44.4413 61.8234 44.2481 61.5355 44.108C61.2514 43.9678 60.9124 43.8977 60.5185 43.8977H58.456V46.9886ZM58.456 42.233H60.2798C60.617 42.233 60.9162 42.1742 61.1776 42.0568C61.4427 41.9356 61.651 41.7652 61.8026 41.5455C61.9579 41.3258 62.0355 41.0625 62.0355 40.7557C62.0355 40.3352 61.8859 39.9962 61.5866 39.7386C61.2912 39.4811 60.8707 39.3523 60.3253 39.3523H58.456V42.233ZM80.9702 43.1818C80.9702 44.4508 80.7296 45.5303 80.2486 46.4205C79.7713 47.3106 79.1198 47.9905 78.294 48.4602C77.4721 48.9261 76.5478 49.1591 75.5213 49.1591C74.4872 49.1591 73.5592 48.9242 72.7372 48.4545C71.9152 47.9848 71.2656 47.3049 70.7884 46.4148C70.3111 45.5246 70.0724 44.447 70.0724 43.1818C70.0724 41.9129 70.3111 40.8333 70.7884 39.9432C71.2656 39.053 71.9152 38.375 72.7372 37.9091C73.5592 37.4394 74.4872 37.2045 75.5213 37.2045C76.5478 37.2045 77.4721 37.4394 78.294 37.9091C79.1198 38.375 79.7713 39.053 80.2486 39.9432C80.7296 40.8333 80.9702 41.9129 80.9702 43.1818ZM78.4759 43.1818C78.4759 42.3598 78.3527 41.6667 78.1065 41.1023C77.8641 40.5379 77.5213 40.1098 77.0781 39.8182C76.6349 39.5265 76.116 39.3807 75.5213 39.3807C74.9266 39.3807 74.4077 39.5265 73.9645 39.8182C73.5213 40.1098 73.1766 40.5379 72.9304 41.1023C72.688 41.6667 72.5668 42.3598 72.5668 43.1818C72.5668 44.0038 72.688 44.697 72.9304 45.2614C73.1766 45.8258 73.5213 46.2538 73.9645 46.5455C74.4077 46.8371 74.9266 46.983 75.5213 46.983C76.116 46.983 76.6349 46.8371 77.0781 46.5455C77.5213 46.2538 77.8641 45.8258 78.1065 45.2614C78.3527 44.697 78.4759 44.0038 78.4759 43.1818ZM82.7926 49V37.3636H85.2528V46.9716H90.2415V49H82.7926ZM92.723 37.3636L95.5355 46.2045H95.6435L98.4616 37.3636H101.189L97.1776 49H94.0071L89.9901 37.3636H92.723ZM103.048 49H100.412L104.429 37.3636H107.599L111.611 49H108.974L106.06 40.0227H105.969L103.048 49ZM102.884 44.4261H109.111V46.3466H102.884V44.4261ZM119.058 40.7102C119.013 40.2519 118.818 39.8958 118.473 39.642C118.128 39.3883 117.661 39.2614 117.07 39.2614C116.668 39.2614 116.329 39.3182 116.053 39.4318C115.776 39.5417 115.564 39.6951 115.416 39.892C115.272 40.089 115.2 40.3125 115.2 40.5625C115.193 40.7708 115.236 40.9527 115.331 41.108C115.429 41.2633 115.564 41.3977 115.734 41.5114C115.905 41.6212 116.102 41.7178 116.325 41.8011C116.549 41.8807 116.787 41.9489 117.041 42.0057L118.087 42.2557C118.594 42.3693 119.06 42.5208 119.484 42.7102C119.909 42.8996 120.276 43.1326 120.587 43.4091C120.897 43.6856 121.138 44.0114 121.308 44.3864C121.482 44.7614 121.571 45.1913 121.575 45.6761C121.571 46.3883 121.39 47.0057 121.03 47.5284C120.674 48.0473 120.159 48.4508 119.484 48.7386C118.814 49.0227 118.005 49.1648 117.058 49.1648C116.119 49.1648 115.301 49.0208 114.604 48.733C113.911 48.4451 113.369 48.0189 112.979 47.4545C112.592 46.8864 112.39 46.1837 112.371 45.3466H114.751C114.778 45.7367 114.89 46.0625 115.087 46.3239C115.287 46.5814 115.554 46.7765 115.888 46.9091C116.225 47.0379 116.606 47.1023 117.03 47.1023C117.446 47.1023 117.808 47.0417 118.115 46.9205C118.426 46.7992 118.666 46.6307 118.837 46.4148C119.007 46.1989 119.092 45.9508 119.092 45.6705C119.092 45.4091 119.015 45.1894 118.859 45.0114C118.708 44.8333 118.484 44.6818 118.189 44.5568C117.897 44.4318 117.539 44.3182 117.115 44.2159L115.848 43.8977C114.867 43.6591 114.092 43.286 113.524 42.7784C112.956 42.2708 112.674 41.5871 112.678 40.7273C112.674 40.0227 112.861 39.4072 113.24 38.8807C113.623 38.3542 114.147 37.9432 114.814 37.6477C115.481 37.3523 116.238 37.2045 117.087 37.2045C117.95 37.2045 118.704 37.3523 119.348 37.6477C119.996 37.9432 120.5 38.3542 120.859 38.8807C121.219 39.4072 121.405 40.017 121.416 40.7102H119.058ZM133.923 43.1818C133.923 44.4508 133.683 45.5303 133.202 46.4205C132.724 47.3106 132.073 47.9905 131.247 48.4602C130.425 48.9261 129.501 49.1591 128.474 49.1591C127.44 49.1591 126.512 48.9242 125.69 48.4545C124.868 47.9848 124.219 47.3049 123.741 46.4148C123.264 45.5246 123.026 44.447 123.026 43.1818C123.026 41.9129 123.264 40.8333 123.741 39.9432C124.219 39.053 124.868 38.375 125.69 37.9091C126.512 37.4394 127.44 37.2045 128.474 37.2045C129.501 37.2045 130.425 37.4394 131.247 37.9091C132.073 38.375 132.724 39.053 133.202 39.9432C133.683 40.8333 133.923 41.9129 133.923 43.1818ZM131.429 43.1818C131.429 42.3598 131.306 41.6667 131.06 41.1023C130.817 40.5379 130.474 40.1098 130.031 39.8182C129.588 39.5265 129.069 39.3807 128.474 39.3807C127.88 39.3807 127.361 39.5265 126.918 39.8182C126.474 40.1098 126.13 40.5379 125.884 41.1023C125.641 41.6667 125.52 42.3598 125.52 43.1818C125.52 44.0038 125.641 44.697 125.884 45.2614C126.13 45.8258 126.474 46.2538 126.918 46.5455C127.361 46.8371 127.88 46.983 128.474 46.983C129.069 46.983 129.588 46.8371 130.031 46.5455C130.474 46.2538 130.817 45.8258 131.06 45.2614C131.306 44.697 131.429 44.0038 131.429 43.1818ZM135.746 37.3636H138.78L141.984 45.1818H142.121L145.325 37.3636H148.359V49H145.973V41.4261H145.876L142.865 48.9432H141.24L138.229 41.3977H138.132V49H135.746V37.3636Z" fill="white"/>
</svg>
