<svg width="53" height="42" viewBox="0 0 53 42" fill="none" xmlns="http://www.w3.org/2000/svg">
<g filter="url(#filter0_d_6_58)">
<path d="M32.125 2.8125C32.8709 2.8125 33.5863 3.10882 34.1137 3.63626C34.6412 4.16371 34.9375 4.87908 34.9375 5.625V28.125C34.9375 28.8709 34.6412 29.5863 34.1137 30.1137C33.5863 30.6412 32.8709 30.9375 32.125 30.9375H20.875C20.1291 30.9375 19.4137 30.6412 18.8863 30.1137C18.3588 29.5863 18.0625 28.8709 18.0625 28.125V5.625C18.0625 4.87908 18.3588 4.16371 18.8863 3.63626C19.4137 3.10882 20.1291 2.8125 20.875 2.8125H32.125ZM20.875 0C19.3832 0 17.9524 0.592632 16.8975 1.64752C15.8426 2.70242 15.25 4.13316 15.25 5.625V28.125C15.25 29.6168 15.8426 31.0476 16.8975 32.1025C17.9524 33.1574 19.3832 33.75 20.875 33.75H32.125C33.6169 33.75 35.0476 33.1574 36.1025 32.1025C37.1574 31.0476 37.75 29.6168 37.75 28.125V5.625C37.75 4.13316 37.1574 2.70242 36.1025 1.64752C35.0476 0.592632 33.6169 0 32.125 0H20.875Z" fill="white"/>
<path d="M26.5 28.125C27.2459 28.125 27.9613 27.8287 28.4888 27.3012C29.0162 26.7738 29.3125 26.0584 29.3125 25.3125C29.3125 24.5665 29.0162 23.8512 28.4888 23.3237C27.9613 22.7963 27.2459 22.5 26.5 22.5C25.7541 22.5 25.0387 22.7963 24.5113 23.3237C23.9838 23.8512 23.6875 24.5665 23.6875 25.3125C23.6875 26.0584 23.9838 26.7738 24.5113 27.3012C25.0387 27.8287 25.7541 28.125 26.5 28.125ZM8.49721 5.78809C8.66049 5.87449 8.80515 5.9922 8.92293 6.13452C9.0407 6.27683 9.12928 6.44096 9.18361 6.61752C9.23793 6.79408 9.25694 6.97961 9.23954 7.16352C9.22214 7.34743 9.16868 7.5261 9.08221 7.68934C7.58665 10.5198 6.80737 13.6737 6.81252 16.875C6.81252 20.1937 7.63377 23.3212 9.08221 26.0606C9.25676 26.3903 9.29318 26.7758 9.18347 27.1324C9.07376 27.4889 8.82691 27.7873 8.49721 27.9618C8.16751 28.1364 7.78198 28.1728 7.42543 28.0631C7.06887 27.9534 6.77051 27.7065 6.59596 27.3768C4.88603 24.1407 3.99475 20.5351 4.00002 16.875C4.00002 13.0865 4.9394 9.50903 6.59596 6.37309C6.68235 6.20981 6.80007 6.06515 6.94239 5.94738C7.0847 5.8296 7.24883 5.74102 7.42539 5.6867C7.60195 5.63237 7.78748 5.61336 7.97139 5.63076C8.15529 5.64816 8.33397 5.70162 8.49721 5.78809ZM44.5028 5.78809C44.6661 5.70162 44.8448 5.64816 45.0287 5.63076C45.2126 5.61336 45.3981 5.63237 45.5747 5.6867C45.7512 5.74102 45.9153 5.8296 46.0577 5.94738C46.2 6.06515 46.3177 6.20981 46.4041 6.37309C48.1141 9.60916 49.0054 13.2149 49 16.875C49.0054 20.5351 48.1141 24.1408 46.4041 27.3768C46.2295 27.7065 45.9312 27.9534 45.5746 28.0631C45.2181 28.1728 44.8325 28.1364 44.5028 27.9618C44.1731 27.7873 43.9263 27.4889 43.8166 27.1324C43.7069 26.7758 43.7433 26.3903 43.9178 26.0606C45.4134 23.2301 46.1927 20.0763 46.1875 16.875C46.1875 13.5562 45.3663 10.4287 43.9178 7.68934C43.8314 7.5261 43.7779 7.34743 43.7605 7.16352C43.7431 6.97961 43.7621 6.79408 43.8164 6.61752C43.8708 6.44096 43.9593 6.27683 44.0771 6.13452C44.1949 5.9922 44.3396 5.87449 44.5028 5.78809ZM12.5978 9.93934C12.77 10.0065 12.9273 10.1069 13.0606 10.2348C13.194 10.3628 13.3008 10.5158 13.375 10.685C13.4491 10.8543 13.4892 11.0365 13.4929 11.2213C13.4967 11.4061 13.4639 11.5897 13.3966 11.7618C12.7608 13.3915 12.4355 15.1257 12.4375 16.875C12.4375 18.6806 12.775 20.4047 13.3938 21.9881C13.4723 22.1619 13.5146 22.3499 13.5181 22.5406C13.5217 22.7312 13.4864 22.9206 13.4145 23.0973C13.3425 23.2739 13.2354 23.434 13.0996 23.568C12.9639 23.7019 12.8023 23.8068 12.6247 23.8763C12.4471 23.9458 12.2572 23.9785 12.0666 23.9723C11.876 23.9661 11.6886 23.9212 11.5159 23.8404C11.3431 23.7595 11.1887 23.6444 11.0619 23.5019C10.935 23.3595 10.8385 23.1928 10.7781 23.0118C10.0145 21.056 9.62336 18.9746 9.62502 16.875C9.62502 14.7122 10.0328 12.6422 10.7781 10.7381C10.9138 10.391 11.1816 10.112 11.5227 9.96224C11.8639 9.81248 12.2506 9.80424 12.5978 9.93934ZM40.4022 9.93934C40.5743 9.87201 40.758 9.83927 40.9428 9.84298C41.1275 9.84669 41.3098 9.88678 41.479 9.96097C41.6483 10.0351 41.8013 10.142 41.9292 10.2753C42.0572 10.4087 42.1576 10.5659 42.2247 10.7381C42.9672 12.6422 43.375 14.7122 43.375 16.875C43.375 19.0378 42.9672 21.1078 42.2219 23.0118C42.0735 23.3404 41.8046 23.5995 41.4707 23.7355C41.1368 23.8715 40.7634 23.8741 40.4277 23.7427C40.092 23.6113 39.8195 23.3559 39.6667 23.0294C39.5138 22.7029 39.4922 22.3301 39.6063 21.9881C40.225 20.4047 40.5625 18.6806 40.5625 16.875C40.5625 15.0693 40.225 13.3453 39.6063 11.7618C39.4701 11.4146 39.4775 11.0275 39.6268 10.6857C39.7761 10.344 40.055 10.0755 40.4022 9.93934Z" fill="white"/>
</g>
<defs>
<filter id="filter0_d_6_58" x="0" y="0" width="53" height="41.75" filterUnits="userSpaceOnUse" color-interpolation-filters="sRGB">
<feFlood flood-opacity="0" result="BackgroundImageFix"/>
<feColorMatrix in="SourceAlpha" type="matrix" values="0 0 0 0 0 0 0 0 0 0 0 0 0 0 0 0 0 0 127 0" result="hardAlpha"/>
<feOffset dy="4"/>
<feGaussianBlur stdDeviation="2"/>
<feComposite in2="hardAlpha" operator="out"/>
<feColorMatrix type="matrix" values="0 0 0 0 0 0 0 0 0 0 0 0 0 0 0 0 0 0 0.25 0"/>
<feBlend mode="normal" in2="BackgroundImageFix" result="effect1_dropShadow_6_58"/>
<feBlend mode="normal" in="SourceGraphic" in2="effect1_dropShadow_6_58" result="shape"/>
</filter>
</defs>
</svg>
