<svg width="110" height="45" viewBox="0 0 110 45" fill="none" xmlns="http://www.w3.org/2000/svg">
<g clip-path="url(#clip0_4_40)">
<path d="M109.705 13.0772C109.705 9.12217 106.796 5.94053 103.201 5.94053C98.3316 5.71289 93.3658 5.625 88.291 5.625H86.709C81.6465 5.625 76.6719 5.71289 71.8027 5.94141C68.2168 5.94141 65.3076 9.14062 65.3076 13.0957C65.0879 16.2237 64.9947 19.3526 65 22.4815C64.9912 25.6104 65.0908 28.7423 65.2988 31.877C65.2988 35.8321 68.208 39.0401 71.7939 39.0401C76.9092 39.2774 82.1563 39.3829 87.4912 39.3741C92.835 39.3917 98.0674 39.2804 103.188 39.0401C106.783 39.0401 109.692 35.8321 109.692 31.877C109.903 28.7394 110 25.6104 109.991 22.4728C110.011 19.3438 109.916 16.212 109.705 13.0772ZM83.1934 31.1036V13.8331L95.9375 22.464L83.1934 31.1036Z" fill="white"/>
</g>
<mask id="mask0_4_40" style="mask-type:luminance" maskUnits="userSpaceOnUse" x="0" y="0" width="45" height="45">
<path d="M0 0H45V45H0V0Z" fill="white"/>
</mask>
<g mask="url(#mask0_4_40)">
<path fill-rule="evenodd" clip-rule="evenodd" d="M0 22.6256C0 33.8119 8.12438 43.1137 18.75 45V28.7494H13.125V22.5H18.75V17.4994C18.75 11.8744 22.3744 8.75062 27.5006 8.75062C29.1244 8.75062 30.8756 9 32.4994 9.24938V15H29.625C26.8744 15 26.25 16.3744 26.25 18.1256V22.5H32.25L31.2506 28.7494H26.25V45C36.8756 43.1137 45 33.8138 45 22.6256C45 10.1813 34.875 0 22.5 0C10.125 0 0 10.1813 0 22.6256Z" fill="white" fill-opacity="0.9"/>
</g>
<defs>
<clipPath id="clip0_4_40">
<rect width="45" height="45" fill="white" transform="translate(65)"/>
</clipPath>
</defs>
</svg>
